<svg width="106" height="14" viewBox="0 0 106 14" fill="none" xmlns="http://www.w3.org/2000/svg">
<path d="M5.19434 0.625L4.22754 12.5957L0.518555 12.7891V0.871094L5.19434 0.625ZM16.5938 0.677734L13.377 12.5605L9.01758 12.8066L5.0625 1.32812L9.22852 0.941406L10.916 7.62109L12.5508 0.414062L16.5938 0.677734ZM26.9824 12.2441L22.623 12.8066L22.0957 10.8203H20.0918L19.6523 12.8066L15.1699 12.3672L18.668 0.660156L23.5547 0.414062L26.9824 12.2441ZM21.7793 8.13086L21.1113 5.07227L20.4609 8.13086H21.7793ZM38.0742 8.55273C38.0742 9.21484 38.0654 9.87109 38.0479 10.5215C38.0361 11.166 38.0156 11.8164 37.9863 12.4727L32.9238 12.3848C33.0996 11.3477 33.252 10.3135 33.3809 9.28223C33.5098 8.24512 33.5742 7.19922 33.5742 6.14453C33.5742 6.06836 33.5713 5.94531 33.5654 5.77539C33.5596 5.60547 33.5479 5.41504 33.5303 5.2041C33.5127 4.9873 33.4863 4.76758 33.4512 4.54492C33.4219 4.31641 33.3779 4.1084 33.3193 3.9209C33.2666 3.7334 33.1992 3.58105 33.1172 3.46387C33.041 3.34082 32.9473 3.2793 32.8359 3.2793C32.6367 3.2793 32.4668 3.33789 32.3262 3.45508C32.1914 3.57227 32.0771 3.72461 31.9834 3.91211C31.8955 4.09375 31.8252 4.29883 31.7725 4.52734C31.7197 4.75586 31.6787 4.98438 31.6494 5.21289C31.626 5.44141 31.6084 5.6582 31.5967 5.86328C31.5908 6.0625 31.5879 6.22656 31.5879 6.35547C31.5586 7.39258 31.5352 8.42383 31.5176 9.44922C31.5 10.4688 31.4766 11.5 31.4473 12.543L26.9648 12.7363C27.082 10.668 27.1934 8.61133 27.2988 6.56641C27.4102 4.52148 27.498 2.46484 27.5625 0.396484L31.7109 0.185547L31.6758 1.5918C31.8398 1.39258 32.0156 1.20508 32.2031 1.0293C32.3965 0.853516 32.6016 0.704102 32.8184 0.581055C33.0352 0.452148 33.2637 0.352539 33.5039 0.282227C33.75 0.206055 34.0078 0.167969 34.2773 0.167969C34.7754 0.167969 35.2119 0.25 35.5869 0.414062C35.9619 0.578125 36.2842 0.800781 36.5537 1.08203C36.8232 1.36328 37.0488 1.69727 37.2305 2.08398C37.4121 2.46484 37.5586 2.87207 37.6699 3.30566C37.7812 3.73926 37.8662 4.19336 37.9248 4.66797C37.9834 5.13672 38.0215 5.59961 38.0391 6.05664C38.0625 6.51367 38.0742 6.95605 38.0742 7.38379C38.0742 7.81152 38.0742 8.20117 38.0742 8.55273ZM49.7725 6.26758C49.7725 6.80078 49.7109 7.31641 49.5879 7.81445C49.4648 8.30664 49.2861 8.76953 49.0518 9.20312C48.8232 9.63672 48.542 10.0352 48.208 10.3984C47.8799 10.7559 47.5078 11.0635 47.0918 11.3213C46.6816 11.5791 46.2334 11.7812 45.7471 11.9277C45.2607 12.0684 44.7451 12.1387 44.2002 12.1387C43.6729 12.1387 43.1689 12.0713 42.6885 11.9365C42.2139 11.8018 41.7686 11.6143 41.3525 11.374C40.9365 11.1279 40.5586 10.835 40.2188 10.4951C39.8848 10.1494 39.5977 9.76855 39.3574 9.35254C39.123 8.93066 38.9385 8.47949 38.8037 7.99902C38.6748 7.51855 38.6104 7.01758 38.6104 6.49609C38.6104 5.98633 38.6719 5.48828 38.7949 5.00195C38.918 4.50977 39.0938 4.04688 39.3223 3.61328C39.5566 3.17969 39.8379 2.78125 40.166 2.41797C40.4941 2.05469 40.8604 1.74121 41.2646 1.47754C41.6748 1.21387 42.1172 1.00879 42.5918 0.862305C43.0664 0.71582 43.5674 0.642578 44.0947 0.642578C44.9443 0.642578 45.7178 0.774414 46.415 1.03809C47.1182 1.30176 47.7158 1.67969 48.208 2.17188C48.7061 2.6582 49.0898 3.25 49.3594 3.94727C49.6348 4.63867 49.7725 5.41211 49.7725 6.26758ZM45.8701 6.49609C45.8701 6.24414 45.832 6.00098 45.7559 5.7666C45.6855 5.52637 45.5801 5.31543 45.4395 5.13379C45.2988 4.94629 45.123 4.79688 44.9121 4.68555C44.707 4.56836 44.4697 4.50977 44.2002 4.50977C43.9248 4.50977 43.6787 4.55957 43.4619 4.65918C43.2451 4.75879 43.0576 4.89648 42.8994 5.07227C42.7471 5.24219 42.6299 5.44434 42.5479 5.67871C42.4658 5.90723 42.4248 6.15039 42.4248 6.4082C42.4248 6.6543 42.46 6.90039 42.5303 7.14648C42.6006 7.39258 42.7061 7.61523 42.8467 7.81445C42.9873 8.01367 43.1602 8.1748 43.3652 8.29785C43.5762 8.4209 43.8193 8.48242 44.0947 8.48242C44.3701 8.48242 44.6162 8.42969 44.833 8.32422C45.0557 8.21289 45.2432 8.06641 45.3955 7.88477C45.5479 7.69727 45.665 7.4834 45.7471 7.24316C45.8291 7.00293 45.8701 6.75391 45.8701 6.49609ZM60.8379 0.677734L57.6211 12.5605L53.2617 12.8066L49.3066 1.32812L53.4727 0.941406L55.1602 7.62109L56.7949 0.414062L60.8379 0.677734ZM74.8564 9.87109C74.8564 10.3574 74.7656 10.7764 74.584 11.1279C74.4082 11.4795 74.1709 11.7783 73.8721 12.0244C73.5732 12.2705 73.2275 12.4727 72.835 12.6309C72.4482 12.7832 72.0439 12.9033 71.6221 12.9912C71.2002 13.0791 70.7754 13.1377 70.3477 13.167C69.9258 13.1963 69.5303 13.2109 69.1611 13.2109C68.7979 13.2109 68.4199 13.1963 68.0273 13.167C67.6406 13.1436 67.2539 13.0996 66.8672 13.0352C66.4805 12.9707 66.0996 12.8857 65.7246 12.7803C65.3496 12.6689 64.9951 12.5312 64.6611 12.3672L64.6436 1.04688C64.9717 0.912109 65.3203 0.791992 65.6895 0.686523C66.0586 0.575195 66.4336 0.484375 66.8145 0.414062C67.2012 0.337891 67.585 0.282227 67.9658 0.24707C68.3467 0.206055 68.7158 0.185547 69.0732 0.185547C69.4893 0.185547 69.9082 0.211914 70.3301 0.264648C70.7578 0.317383 71.168 0.405273 71.5605 0.52832C71.9531 0.651367 72.3193 0.8125 72.6592 1.01172C72.999 1.20508 73.2949 1.44531 73.5469 1.73242C73.8047 2.01953 74.0039 2.35352 74.1445 2.73438C74.291 3.11523 74.3643 3.55469 74.3643 4.05273C74.3643 4.38086 74.3174 4.68848 74.2236 4.97559C74.1299 5.2627 73.9951 5.52051 73.8193 5.74902C73.6436 5.97754 73.4297 6.17383 73.1777 6.33789C72.9258 6.49609 72.6416 6.61328 72.3252 6.68945C72.7061 6.78906 73.0518 6.93555 73.3623 7.12891C73.6787 7.32227 73.9453 7.55664 74.1621 7.83203C74.3848 8.10742 74.5547 8.41797 74.6719 8.76367C74.7949 9.10938 74.8564 9.47852 74.8564 9.87109ZM70.3916 4.86133C70.3916 4.69141 70.3564 4.54785 70.2861 4.43066C70.2158 4.30762 70.1279 4.20801 70.0225 4.13184C69.9229 4.05566 69.8115 4 69.6885 3.96484C69.5713 3.92969 69.4658 3.91211 69.3721 3.91211C69.2549 3.91211 69.1406 3.92969 69.0293 3.96484C68.918 4 68.8096 4.04102 68.7041 4.08789L68.6514 6.03906C68.7861 6.03906 68.9531 6.02734 69.1523 6.00391C69.3516 5.98047 69.542 5.93066 69.7236 5.85449C69.9111 5.77246 70.0693 5.65527 70.1982 5.50293C70.3271 5.34473 70.3916 5.13086 70.3916 4.86133ZM69.1436 7.72656C68.9736 7.72656 68.8096 7.74414 68.6514 7.7793L68.6162 9.7832C68.7041 9.80078 68.7891 9.81836 68.8711 9.83594C68.959 9.84766 69.0439 9.85352 69.126 9.85352C69.249 9.85352 69.3838 9.8418 69.5303 9.81836C69.6768 9.78906 69.8145 9.73633 69.9434 9.66016C70.0723 9.57812 70.1777 9.46973 70.2598 9.33496C70.3477 9.2002 70.3916 9.02148 70.3916 8.79883C70.3916 8.57617 70.3477 8.39453 70.2598 8.25391C70.1777 8.11328 70.0752 8.00488 69.9521 7.92871C69.8291 7.84668 69.6943 7.79395 69.5479 7.77051C69.4014 7.74121 69.2666 7.72656 69.1436 7.72656ZM83.0391 8.3418L82.6699 12.2441L75.2695 12.8242L75.5508 0.273438H80.1211L79.4707 8.3418H83.0391ZM94.3154 6.26758C94.3154 6.80078 94.2539 7.31641 94.1309 7.81445C94.0078 8.30664 93.8291 8.76953 93.5947 9.20312C93.3662 9.63672 93.085 10.0352 92.751 10.3984C92.4229 10.7559 92.0508 11.0635 91.6348 11.3213C91.2246 11.5791 90.7764 11.7812 90.29 11.9277C89.8037 12.0684 89.2881 12.1387 88.7432 12.1387C88.2158 12.1387 87.7119 12.0713 87.2314 11.9365C86.7568 11.8018 86.3115 11.6143 85.8955 11.374C85.4795 11.1279 85.1016 10.835 84.7617 10.4951C84.4277 10.1494 84.1406 9.76855 83.9004 9.35254C83.666 8.93066 83.4814 8.47949 83.3467 7.99902C83.2178 7.51855 83.1533 7.01758 83.1533 6.49609C83.1533 5.98633 83.2148 5.48828 83.3379 5.00195C83.4609 4.50977 83.6367 4.04688 83.8652 3.61328C84.0996 3.17969 84.3809 2.78125 84.709 2.41797C85.0371 2.05469 85.4033 1.74121 85.8076 1.47754C86.2178 1.21387 86.6602 1.00879 87.1348 0.862305C87.6094 0.71582 88.1104 0.642578 88.6377 0.642578C89.4873 0.642578 90.2607 0.774414 90.958 1.03809C91.6611 1.30176 92.2588 1.67969 92.751 2.17188C93.249 2.6582 93.6328 3.25 93.9023 3.94727C94.1777 4.63867 94.3154 5.41211 94.3154 6.26758ZM90.4131 6.49609C90.4131 6.24414 90.375 6.00098 90.2988 5.7666C90.2285 5.52637 90.123 5.31543 89.9824 5.13379C89.8418 4.94629 89.666 4.79688 89.4551 4.68555C89.25 4.56836 89.0127 4.50977 88.7432 4.50977C88.4678 4.50977 88.2217 4.55957 88.0049 4.65918C87.7881 4.75879 87.6006 4.89648 87.4424 5.07227C87.29 5.24219 87.1729 5.44434 87.0908 5.67871C87.0088 5.90723 86.9678 6.15039 86.9678 6.4082C86.9678 6.6543 87.0029 6.90039 87.0732 7.14648C87.1436 7.39258 87.249 7.61523 87.3896 7.81445C87.5303 8.01367 87.7031 8.1748 87.9082 8.29785C88.1191 8.4209 88.3623 8.48242 88.6377 8.48242C88.9131 8.48242 89.1592 8.42969 89.376 8.32422C89.5986 8.21289 89.7861 8.06641 89.9385 7.88477C90.0908 7.69727 90.208 7.4834 90.29 7.24316C90.3721 7.00293 90.4131 6.75391 90.4131 6.49609ZM105.557 11.0312C105.281 11.377 104.941 11.6787 104.537 11.9365C104.133 12.1943 103.699 12.4082 103.236 12.5781C102.773 12.748 102.299 12.877 101.812 12.9648C101.326 13.0469 100.863 13.0879 100.424 13.0879C99.5742 13.0879 98.792 12.9443 98.0771 12.6572C97.3623 12.3701 96.7441 11.9717 96.2227 11.4619C95.707 10.9463 95.3027 10.334 95.0098 9.625C94.7168 8.91602 94.5703 8.14258 94.5703 7.30469C94.5703 6.66602 94.6436 6.04492 94.79 5.44141C94.9365 4.83789 95.1445 4.27246 95.4141 3.74512C95.6895 3.21777 96.0234 2.73438 96.416 2.29492C96.8086 1.85547 97.2539 1.47754 97.752 1.16113C98.25 0.844727 98.7949 0.601562 99.3867 0.431641C99.9844 0.255859 100.617 0.167969 101.285 0.167969C101.537 0.167969 101.807 0.179687 102.094 0.203125C102.381 0.220703 102.665 0.255859 102.946 0.308594C103.233 0.355469 103.512 0.422852 103.781 0.510742C104.051 0.598633 104.297 0.707031 104.52 0.835938L104.273 4.19336C103.945 4.07031 103.605 3.98828 103.254 3.94727C102.908 3.90039 102.568 3.87695 102.234 3.87695C101.766 3.87695 101.326 3.94141 100.916 4.07031C100.512 4.19336 100.157 4.37793 99.8525 4.62402C99.5537 4.87012 99.3164 5.17773 99.1406 5.54688C98.9648 5.91602 98.877 6.34375 98.877 6.83008C98.877 7.13477 98.918 7.43066 99 7.71777C99.082 7.99902 99.2051 8.25098 99.3691 8.47363C99.5391 8.69043 99.7471 8.86621 99.9932 9.00098C100.245 9.13574 100.535 9.20312 100.863 9.20312C101.086 9.20312 101.314 9.17383 101.549 9.11523C101.789 9.05664 101.994 8.95703 102.164 8.81641L102.199 8.13086L100.09 8.0957L100.195 5.45898C101.068 5.42969 101.941 5.40625 102.814 5.38867C103.688 5.36523 104.566 5.33594 105.451 5.30078L105.557 11.0312Z" fill="black"/>
</svg>
